<?xml version="1.0" encoding="UTF-8" standalone="no"?>
<!-- Created with Inkscape (http://www.inkscape.org/) -->

<svg
   xmlns:osb="http://www.openswatchbook.org/uri/2009/osb"
   xmlns:dc="http://purl.org/dc/elements/1.1/"
   xmlns:cc="http://creativecommons.org/ns#"
   xmlns:rdf="http://www.w3.org/1999/02/22-rdf-syntax-ns#"
   xmlns:svg="http://www.w3.org/2000/svg"
   xmlns="http://www.w3.org/2000/svg"
   xmlns:sodipodi="http://sodipodi.sourceforge.net/DTD/sodipodi-0.dtd"
   xmlns:inkscape="http://www.inkscape.org/namespaces/inkscape"
   width="213.85544mm"
   height="122.07056mm"
   viewBox="0 0 213.85544 122.07056"
   version="1.1"
   id="svg8"
   inkscape:version="0.92.1 r15371"
   sodipodi:docname="TornadoFX-Logo-White.svg">
  <defs
     id="defs2">
    <linearGradient
       id="linearGradient942"
       osb:paint="solid">
      <stop
         style="stop-color:#000000;stop-opacity:1;"
         offset="0"
         id="stop940" />
    </linearGradient>
    <linearGradient
       id="linearGradient936"
       osb:paint="solid">
      <stop
         style="stop-color:#000000;stop-opacity:1;"
         offset="0"
         id="stop934" />
    </linearGradient>
    <clipPath
       id="clipPath26"
       clipPathUnits="userSpaceOnUse">
      <path
         inkscape:connector-curvature="0"
         id="path24"
         d="M 0,346.027 H 606.205 V 0 H 0 Z" />
    </clipPath>
  </defs>
  <sodipodi:namedview
     id="base"
     pagecolor="#ffffff"
     bordercolor="#666666"
     borderopacity="1.0"
     inkscape:pageopacity="0.0"
     inkscape:pageshadow="2"
     inkscape:zoom="0.35"
     inkscape:cx="-574.43519"
     inkscape:cy="167.82737"
     inkscape:document-units="mm"
     inkscape:current-layer="g18"
     showgrid="false"
     fit-margin-top="0"
     fit-margin-left="0"
     fit-margin-right="0"
     fit-margin-bottom="0"
     inkscape:window-width="5120"
     inkscape:window-height="2739"
     inkscape:window-x="-14"
     inkscape:window-y="-14"
     inkscape:window-maximized="1" />
  <metadata
     id="metadata5">
    <rdf:RDF>
      <cc:Work
         rdf:about="">
        <dc:format>image/svg+xml</dc:format>
        <dc:type
           rdf:resource="http://purl.org/dc/dcmitype/StillImage" />
        <dc:title></dc:title>
      </cc:Work>
    </rdf:RDF>
  </metadata>
  <g
     inkscape:label="Layer 1"
     inkscape:groupmode="layer"
     id="layer1"
     transform="translate(-1.1734767,-71.167097)">
    <g
       transform="matrix(0.35277777,0,0,-0.35277777,1.1734767,193.23773)"
       inkscape:label="tornado-fx-logo-2-x"
       id="g18">
      <g
         id="g20"
         style="fill-opacity:1;fill:#ffffff;stroke:#ffffff;stroke-opacity:1">
        <g
           clip-path="url(#clipPath26)"
           id="g22"
           style="fill-opacity:1;fill:#ffffff;stroke:#ffffff;stroke-opacity:1">
          <g
             transform="translate(266.0109,191.3481)"
             id="g28"
             style="fill-opacity:1;fill:#ffffff;stroke:#ffffff;stroke-opacity:1">
            <path
               inkscape:connector-curvature="0"
               id="path30"
               style="fill:#ffffff;fill-opacity:1;fill-rule:nonzero;stroke:#ffffff;stroke-opacity:1"
               d="m 0,0 c 0,-5.476 0,-10.951 -0.912,-16.426 -1.369,-12.776 -4.564,-25.095 -10.038,-36.959 -10.495,-23.726 -28.29,-43.803 -50.648,-57.491 -9.582,-5.932 -19.62,-10.038 -30.57,-13.232 -8.214,-2.282 -16.427,-3.651 -25.096,-4.563 h -0.913 -1.824 c 3.193,5.019 6.844,9.582 10.95,14.145 -4.106,-2.282 -8.213,-5.019 -12.319,-7.757 5.932,11.863 10.494,25.095 10.95,38.784 2.282,32.852 -6.388,63.879 -10.494,93.993 -6.388,39.24 -1.825,78.024 14.601,109.051 0.913,0 1.825,-0.456 2.738,-0.456 23.726,-3.651 45.628,-15.057 63.423,-31.027 C -21.901,70.723 -8.669,47.909 -3.65,23.27 -1.369,15.057 -0.456,7.757 0,0 m 25.096,15.97 c -0.913,6.844 -1.825,13.232 -3.195,19.62 -2.737,12.319 -7.299,24.639 -12.775,36.046 -10.951,21.901 -28.29,41.065 -48.366,55.21 -9.582,6.844 -19.62,12.319 -30.571,16.426 -11.863,4.562 -24.182,7.756 -36.502,9.582 -6.844,1.369 -14.145,1.825 -20.989,1.825 h -3.194 c -5.019,-9.582 -9.582,-19.164 -12.775,-29.202 -8.67,-25.552 -10.039,-52.472 -7.301,-78.48 1.369,-12.776 3.65,-25.096 6.844,-37.872 3.194,-12.775 6.844,-25.095 10.951,-37.415 5.475,-18.251 10.494,-36.502 11.407,-55.209 0.912,-13.689 -2.281,-27.377 -7.301,-41.065 -5.018,9.582 -12.319,18.251 -22.357,21.445 9.125,-5.932 13.232,-15.97 15.056,-25.552 h -2.737 c -7.301,0.912 -14.145,1.825 -21.445,3.65 -10.038,2.738 -20.076,6.388 -29.201,11.408 -19.165,10.494 -35.134,25.55 -47.454,43.345 -13.688,20.077 -20.989,44.716 -21.902,68.899 -0.912,25.096 5.476,49.735 17.795,71.636 11.863,20.533 29.202,37.871 49.735,49.734 7.757,4.563 15.97,8.213 24.639,10.951 1.825,0.457 2.737,0.913 2.737,0.913 0,0 -0.912,-0.456 -2.281,-0.913 -20.988,-5.931 -40.152,-17.338 -56.122,-31.939 -17.795,-16.883 -31.483,-38.784 -38.327,-62.511 -3.651,-11.863 -5.476,-24.183 -5.476,-36.502 0,-6.388 0,-13.232 0.912,-19.62 0.457,-5.476 1.826,-10.495 2.739,-15.97 1.368,-6.388 3.193,-12.32 5.474,-18.251 2.282,-5.932 5.02,-11.863 8.214,-17.795 5.475,-9.126 11.863,-18.251 19.163,-26.465 8.213,-9.125 17.795,-17.337 28.29,-24.182 10.038,-6.844 20.989,-11.863 32.396,-15.97 14.144,-5.018 28.745,-6.844 43.346,-7.757 7.3,-0.456 14.601,0 21.902,0.913 6.844,0.912 13.688,2.282 20.076,4.107 24.183,6.387 46.997,20.076 64.792,37.415 18.251,18.251 31.483,40.608 38.327,65.247 2.281,7.757 3.651,15.514 4.563,23.727 0.457,5.019 0.913,10.038 0.913,15.057 0.456,5.019 0.456,10.495 0,15.514" />
          </g>
          <g
             transform="translate(356.7492,256.5693)"
             id="g32"
             style="fill-opacity:1;fill:#ffffff;stroke:#ffffff;stroke-opacity:1">
            <path
               inkscape:connector-curvature="0"
               id="path34"
               style="fill:#ffffff;fill-opacity:1;fill-rule:nonzero;stroke:#ffffff;stroke-opacity:1"
               d="M 0,0 V 0 L 0.425,-6.375 0,-6.799 h -12.324 v -32.723 l -0.425,-0.425 h -5.95 l -0.425,0.425 v 32.723 h -12.324 l -0.425,0.424 v 5.95 L -31.448,0 Z" />
          </g>
          <g
             transform="translate(364.3986,236.5956)"
             id="g36"
             style="fill-opacity:1;fill:#ffffff;stroke:#ffffff;stroke-opacity:1">
            <path
               inkscape:connector-curvature="0"
               id="path38"
               style="fill:#ffffff;fill-opacity:1;fill-rule:nonzero;stroke:#ffffff;stroke-opacity:1"
               d="m 0,0 c 0,-7.649 5.949,-13.599 13.599,-13.599 7.649,0 13.598,5.95 13.598,13.599 0,7.649 -5.949,13.599 -13.598,13.599 C 5.949,13.599 0,7.649 0,0 m 34.422,0 c 0,-11.474 -9.349,-20.823 -20.823,-20.823 -11.474,0 -20.824,9.349 -20.824,20.823 0,11.474 9.35,20.824 20.824,20.824 11.474,0 20.823,-9.35 20.823,-20.824" />
          </g>
          <g
             transform="translate(411.9943,239.9955)"
             id="g40"
             style="fill-opacity:1;fill:#ffffff;stroke:#ffffff;stroke-opacity:1">
            <path
               inkscape:connector-curvature="0"
               id="path42"
               style="fill:#ffffff;fill-opacity:1;fill-rule:nonzero;stroke:#ffffff;stroke-opacity:1"
               d="m 0,0 h 4.675 c 3.825,0 5.95,1.7 5.95,5.1 0,3.4 -2.125,5.099 -5.95,5.099 H 0 Z m 4.675,16.574 c 8.074,0 13.174,-5.1 13.174,-11.474 0,-4.675 -2.55,-8.075 -6.374,-9.775 l 13.173,-17.848 -0.424,-0.425 h -7.65 l -0.425,0.425 -12.324,16.148 h -4.25 v -16.148 -0.85 h -5.949 l -0.425,0.425 v 39.097 l 0.425,0.425 z" />
          </g>
          <g
             transform="translate(448.1174,256.5693)"
             id="g44"
             style="fill-opacity:1;fill:#ffffff;stroke:#ffffff;stroke-opacity:1">
            <path
               inkscape:connector-curvature="0"
               id="path46"
               style="fill:#ffffff;fill-opacity:1;fill-rule:nonzero;stroke:#ffffff;stroke-opacity:1"
               d="M 0,0 0.425,-0.425 22.098,-28.898 V -0.425 L 22.522,0 h 5.951 l 0.424,-0.425 v -39.097 l -0.424,-0.425 H 22.098 L 21.673,-39.522 0,-11.049 v -28.473 l -0.426,-0.425 H -6.375 L -6.8,-39.522 V -0.425 L -6.375,0 Z" />
          </g>
          <g
             transform="translate(494.8635,232.3461)"
             id="g48"
             style="fill-opacity:1;fill:#ffffff;stroke:#ffffff;stroke-opacity:1">
            <path
               inkscape:connector-curvature="0"
               id="path50"
               style="fill:#ffffff;fill-opacity:1;fill-rule:nonzero;stroke:#ffffff;stroke-opacity:1"
               d="M 0,0 H 11.474 L 5.949,15.299 Z m 8.924,24.223 v 0 l 15.723,-39.522 -0.424,-0.425 h -6.799 l -0.425,0.425 -3.4,8.5 H -2.55 l -3.4,-8.5 -0.425,-0.425 h -6.799 l -0.425,0.425 15.724,39.097 0.425,0.425 z" />
          </g>
          <g
             transform="translate(530.9855,223.4218)"
             id="g52"
             style="fill-opacity:1;fill:#ffffff;stroke:#ffffff;stroke-opacity:1">
            <path
               inkscape:connector-curvature="0"
               id="path54"
               style="fill:#ffffff;fill-opacity:1;fill-rule:nonzero;stroke:#ffffff;stroke-opacity:1"
               d="m 0,0 h 7.225 c 8.074,0 13.598,5.524 13.598,13.174 0,7.649 -5.524,13.174 -13.598,13.174 H 0 Z m 7.225,33.147 c 12.324,0 20.823,-8.924 20.823,-19.973 0,-11.049 -8.925,-19.973 -20.823,-19.973 H -5.949 l -0.426,0.424 v 39.098 l 0.426,0.424 z" />
          </g>
          <g
             transform="translate(571.7824,236.5956)"
             id="g56"
             style="fill-opacity:1;fill:#ffffff;stroke:#ffffff;stroke-opacity:1">
            <path
               inkscape:connector-curvature="0"
               id="path58"
               style="fill:#ffffff;fill-opacity:1;fill-rule:nonzero;stroke:#ffffff;stroke-opacity:1"
               d="m 0,0 c 0,-7.649 5.949,-13.599 13.599,-13.599 7.649,0 13.599,5.95 13.599,13.599 0,7.649 -5.95,13.599 -13.599,13.599 C 5.949,13.599 0,7.649 0,0 m 34.422,0 c 0,-11.474 -9.349,-20.823 -20.823,-20.823 -11.474,0 -20.824,9.349 -20.824,20.823 0,11.474 9.35,20.824 20.824,20.824 11.474,0 20.823,-9.35 20.823,-20.824" />
          </g>
          <g
             transform="translate(474.0598,183.4472)"
             id="g60"
             style="fill-opacity:1;fill:#ffffff;stroke:#ffffff;stroke-opacity:1">
            <path
               inkscape:connector-curvature="0"
               id="path62"
               style="fill:#ffffff;fill-opacity:1;fill-rule:nonzero;stroke:#ffffff;stroke-opacity:1"
               d="M 0,0 H -16.249 L -43.259,-27.01 -70.293,0 h -71.504 v -11.491 -11.57 -11.494 -35.132 h 12.548 v 35.132 h 56.959 l -11.583,11.49 h -0.467 c -0.404,0 -29.056,0.001 -44.909,0.001 v 11.573 h 54.251 l 23.629,-23.629 -148.323,-148.327 128.363,114.581 28.085,25.621 26.442,-26.442 h 16.257 l -34.586,34.555 z" />
          </g>
        </g>
      </g>
    </g>
  </g>
</svg>
