<?xml version="1.0" encoding="utf-8"?>
<!-- Generator: Adobe Illustrator 17.1.0, SVG Export Plug-In . SVG Version: 6.00 Build 0)  -->
<svg version="1.2" baseProfile="tiny" id="Layer_1" xmlns="http://www.w3.org/2000/svg" xmlns:xlink="http://www.w3.org/1999/xlink"
	 x="0px" y="0px" viewBox="0 0 230 108.3" overflow="scroll" xml:space="preserve">
<g>
	<g>
		<path d="M104.8,49.9c-0.3-2.5-0.7-4.8-1.2-7.1c-1-4.4-2.6-8.9-4.6-13C95.1,22,88.9,15.1,81.7,10c-3.5-2.5-7.1-4.4-11-5.9
			c-4.3-1.6-8.7-2.8-13.1-3.4C55,0.2,52.4,0,49.9,0c-0.3,0-0.8,0-1.2,0c-1.8,3.5-3.5,6.9-4.6,10.5c-3.1,9.2-3.6,18.9-2.6,28.3
			c0.5,4.6,1.3,9,2.5,13.6s2.5,9,3.9,13.5c2,6.6,3.8,13.1,4.1,19.9c0.3,4.9-0.8,9.9-2.6,14.8c-1.8-3.4-4.4-6.6-8-7.7
			c3.3,2.1,4.8,5.8,5.4,9.2c-0.3,0-0.7,0-1,0c-2.6-0.3-5.1-0.7-7.7-1.3c-3.6-1-7.2-2.3-10.5-4.1c-6.9-3.8-12.6-9.2-17.1-15.6
			C5.6,73.8,3,64.9,2.6,56.2c-0.3-9,2-17.9,6.4-25.8c4.3-7.4,10.5-13.6,17.9-17.9c2.8-1.6,5.8-3,8.9-3.9c0.7-0.2,1-0.3,1-0.3
			S36.5,8.4,36,8.5c-7.6,2.1-14.5,6.2-20.2,11.5C9.4,26.1,4.4,34,2,42.5c-1.3,4.3-2,8.7-2,13.1c0,2.3,0,4.8,0.3,7.1
			c0.2,2,0.7,3.8,1,5.8c0.5,2.3,1.2,4.4,2,6.6s1.8,4.3,3,6.4c2,3.3,4.3,6.6,6.9,9.5c3,3.3,6.4,6.2,10.2,8.7
			c3.6,2.5,7.6,4.3,11.7,5.7c5.1,1.8,10.3,2.5,15.6,2.8c2.6,0.2,5.3,0,7.9-0.3c2.5-0.3,4.9-0.8,7.2-1.5c8.7-2.3,16.9-7.2,23.3-13.5
			c6.6-6.6,11.3-14.6,13.8-23.5c0.8-2.8,1.3-5.6,1.6-8.5c0.2-1.8,0.3-3.6,0.3-5.4C105,53.7,105,51.8,104.8,49.9z M95.8,55.7
			c0,2,0,3.9-0.3,5.9c-0.5,4.6-1.6,9-3.6,13.3c-3.8,8.5-10.2,15.8-18.2,20.7c-3.5,2.1-7.1,3.6-11,4.8c-3,0.8-5.9,1.3-9,1.6
			c-0.2,0-0.3,0-0.3,0c-0.2,0-0.5,0-0.7,0c1.1-1.8,2.5-3.4,3.9-5.1c-1.5,0.8-3,1.8-4.4,2.8c2.1-4.3,3.8-9,3.9-14
			c0.8-11.8-2.3-23-3.8-33.8c-2.3-14.1-0.7-28.1,5.3-39.3c0.3,0,0.7,0.2,1,0.2C67,14.1,74.9,18.2,81.3,24
			c6.6,6.2,11.3,14.5,13.1,23.3C95.3,50.3,95.6,52.9,95.8,55.7L95.8,55.7L95.8,55.7z"/>
	</g>
	<g>
		<path fill="#FF3B00" d="M145.4,58h-19.9v15h17.9c0.7,0,0.8,0.2,0.8,0.5c0,0.7,0,1,0,1.6c0,0.5-0.2,0.5-0.8,0.5h-17.9
			c0,0,0,11.2,0,14.9c0,0.7,0,0.8-0.3,0.8h-2.3c-0.3,0-0.3,0-0.3-0.8c0-0.8,0-33.7,0-34.7c0-0.2,0.3-0.5,0.3-0.5h22.5
			c0.5,0,0.5,0.2,0.5,0.5c0,0.7,0,0.8,0,1.5C145.9,57.8,145.9,58,145.4,58z"/>
		<path fill="#FF3B00" d="M179,91.3h-2.5c-0.5,0-0.7-0.2-0.8-0.3c-1.5-2-11.3-15.1-11.3-15.1s-10.2,13-11.7,15
			c-0.3,0.5-0.5,0.7-1,0.7h-2c-0.7,0-0.7-0.3-0.3-0.7c2-2.6,13.1-17.1,13.1-17.1s-9.4-13-12.8-17.4c-0.3-0.3-0.2-0.7,0.5-0.7h2.3
			c0.5,0,0.5,0.2,0.8,0.5c2.6,3.8,11,15.4,11,15.4s8.9-12.3,11.2-15.4c0.3-0.5,0.5-0.5,0.8-0.5c0.8,0,2.1,0,2.1,0
			c0.3,0,0.7,0.2,0.3,0.5c-2.8,3.8-13,17.6-13,17.6s11.7,15.1,13.5,17.4C179.6,91.2,179.6,91.3,179,91.3z"/>
	</g>
	<g>
		<path d="M133.6,25.6L133.6,25.6l0.2,2.5l-0.2,0.2h-4.8v12.7l-0.2,0.2h-2.3l-0.2-0.2V28.3h-4.8l-0.2-0.2v-2.3l0.2-0.2H133.6z"/>
		<path d="M149.8,33.3c0,4.4-3.6,8-8.1,8c-4.4,0-8.1-3.6-8.1-8s3.6-8,8.1-8C146.2,25.3,149.8,28.9,149.8,33.3z M136.5,33.3
			c0,3,2.3,5.3,5.3,5.3c3,0,5.3-2.3,5.3-5.3s-2.3-5.3-5.3-5.3C138.8,28.1,136.5,30.4,136.5,33.3z"/>
		<path d="M156.7,25.6c3.1,0,5.1,2,5.1,4.4c0,1.8-1,3.1-2.5,3.8l5.1,6.9l-0.2,0.2h-3l-0.2-0.2l-4.8-6.2h-1.6v6.2v0.3h-2.3l-0.2-0.2
			V25.8l0.2-0.2C152.5,25.6,156.7,25.6,156.7,25.6z M154.9,32h1.8c1.5,0,2.3-0.7,2.3-2s-0.8-2-2.3-2h-1.8V32z"/>
		<path d="M168.9,25.6l0.2,0.2l8.4,11v-11l0.2-0.2h2.3l0.2,0.2v15.1l-0.2,0.2h-2.5l-0.2-0.2l-8.4-11v11l-0.2,0.2h-2.3l-0.2-0.2V25.8
			l0.2-0.2C166.4,25.6,168.9,25.6,168.9,25.6z"/>
		<path d="M190.4,25.6L190.4,25.6l6.1,15.3l-0.2,0.2h-2.6l-0.2-0.2l-1.3-3.3H186l-1.3,3.3l-0.2,0.2h-2.6l-0.2-0.2l6.1-15.1l0.2-0.2
			C187.9,25.6,190.4,25.6,190.4,25.6z M187,35h4.4l-2.1-5.9L187,35z"/>
		<path d="M203.7,25.6c4.8,0,8,3.5,8,7.7c0,4.3-3.4,7.7-8.1,7.7h-5.1l-0.2-0.2V25.8l0.2-0.2C198.6,25.6,203.7,25.6,203.7,25.6z
			 M200.9,38.4h2.8c3.1,0,5.3-2.1,5.3-5.1c0-3-2.1-5.1-5.3-5.1h-2.8V38.4z"/>
		<path d="M230,33.3c0,4.4-3.6,8-8,8c-4.4,0-8-3.6-8-8s3.6-8,8-8C226.4,25.3,230,28.9,230,33.3z M216.7,33.3c0,3,2.3,5.3,5.3,5.3
			c3,0,5.3-2.3,5.3-5.3s-2.3-5.3-5.3-5.3C219,28.1,216.7,30.4,216.7,33.3z"/>
	</g>
</g>
</svg>
